<?xml version="1.0" encoding="UTF-8"?>
<svg version="1.1" xmlns="http://www.w3.org/2000/svg" xmlns:xlink="http://www.w3.org/1999/xlink" viewBox="0 0 24 24" xml:space="preserve">
    <g>
        <path d="M22.23,0H1.77C0.79,0,0,0.79,0,1.77v20.46C0,23.21,0.79,24,1.77,24h20.46c0.98,0,1.77-0.79,1.77-1.77V1.77
            C24,0.79,23.21,0,22.23,0z M7.08,20.45H3.56V9.12h3.52V20.45z M5.32,7.35c-1.16,0-2.1-0.94-2.1-2.1c0-1.17,0.94-2.1,2.1-2.1
            c1.16,0,2.1,0.94,2.1,2.1C7.42,6.41,6.28,7.35,5.32,7.35z M20.45,20.45h-3.52v-5.69c0-1.36-0.03-3.14-1.92-3.14
            c-1.94,0-2.24,1.51-2.24,3.07v5.76h-3.52V9.12h3.38v1.57h0.05c0.47-0.89,1.61-1.82,3.32-1.82c3.55,0,4.21,2.34,4.21,5.39V20.45z"/>
    </g>
</svg>
